<?xml version="1.0" encoding="UTF-8"?> <svg xmlns="http://www.w3.org/2000/svg" fill="none" viewBox="0 0 246 76"><path fill="#00436A" d="M.4 54c-.3-.3-.4-.6-.4-1V15c0-.4.1-.7.4-1 .2-.2.5-.3.9-.3h14.1c4.2 0 7.4 1 9.8 3 2.4 2.1 3.6 5.1 3.6 9 0 3.8-1.2 6.8-3.6 8.9-2.4 2-5.6 3-9.8 3H3.7V53c0 .4-.2.7-.4 1-.3.1-.6.3-1 .3h-1c-.4 0-.7-.1-1-.4ZM15 34.1c3.4 0 5.9-.7 7.5-2.2 1.7-1.4 2.5-3.5 2.5-6.3s-.8-5-2.5-6.4c-1.6-1.4-4.1-2.1-7.5-2.1H3.7v17H15ZM38.3 54c-.2-.3-.3-.6-.3-1V15c0-.4 0-.7.3-1 .3-.2.6-.3 1-.3h13.5c4.2 0 7.5 1 9.8 3 2.4 2 3.6 4.8 3.6 8.7 0 3-.8 5.5-2.3 7.4a11.3 11.3 0 0 1-6.5 3.8l9.4 15.9.1.6c0 .3 0 .6-.3.8-.2.2-.5.4-.8.4H65c-.6 0-1-.2-1.3-.4l-1-1.2-9.2-15.6h-12V53c0 .4 0 .7-.3 1-.3.1-.6.3-1 .3h-1c-.4 0-.7-.1-1-.4Zm14.2-20.4c3.4 0 5.9-.7 7.5-2 1.7-1.4 2.5-3.5 2.5-6.2 0-2.8-.8-4.8-2.5-6.2-1.6-1.4-4.1-2-7.5-2H41.6v16.4h11Z"></path><path fill="#57B3E5" d="M77 75.2c-.2-.2-.4-.5-.4-.9v-73c0-.4.2-.7.4-1 .2-.2.5-.3 1-.3h8.7c.4 0 .7.1 1 .3.2.3.3.6.3 1V2c0 .4-.1.7-.4 1-.2.1-.5.3-.9.3h-6.5v68.8h6.5c.4 0 .7.1 1 .4.2.2.3.5.3.9v.8c0 .4-.1.7-.4 1-.2.2-.5.3-.9.3H78c-.4 0-.7-.1-.9-.4ZM90.6 51.8a1 1 0 0 1-.3-.7l.1-.6 12.7-32.8c.2-.8.8-1.1 1.6-1.1h3.2c.9 0 1.4.3 1.7 1l12.6 33 .1.5c0 .2-.1.5-.3.7a1 1 0 0 1-.8.3h-2.4c-.3 0-.6-.1-.8-.3-.2-.2-.4-.4-.4-.6l-2.9-7.3H98L95 51.2c-.3.6-.7.9-1.3.9h-2.4a1 1 0 0 1-.8-.3Zm8.7-12h14l-7-18.3-7 18.2ZM130.1 51.8c-.2-.3-.3-.5-.3-.9V17.7c0-.3.1-.6.3-.8.2-.2.5-.3.8-.3h2.6c.4 0 .7 0 .9.3.2.2.3.5.3.8V51a1.1 1.1 0 0 1-1.2 1.2H131a1 1 0 0 1-.9-.3ZM140.5 75.2c-.2-.2-.3-.5-.3-.9v-.8c0-.4.1-.7.3-1 .3-.2.6-.3 1-.3h6.5V3.4h-6.5c-.4 0-.7-.2-1-.4-.2-.2-.3-.5-.3-1v-.7c0-.4.1-.7.3-1 .3-.2.6-.3 1-.3h8.7c.4 0 .7.1 1 .3.2.3.3.6.3 1v73c0 .4 0 .7-.3 1-.3.2-.6.3-1 .3h-8.7c-.4 0-.7-.1-1-.4Z"></path><path fill="#00436A" d="M163.4 54c-.2-.3-.4-.6-.4-1V15c0-.4.2-.7.4-1 .2-.2.5-.3 1-.3h13.5c4.2 0 7.4 1 9.8 3 2.4 2 3.5 4.8 3.5 8.7 0 3-.7 5.5-2.2 7.4a11.3 11.3 0 0 1-6.5 3.8l9.3 15.9.2.6c0 .3-.1.6-.3.8-.3.2-.5.4-.9.4h-.7c-.5 0-1-.2-1.3-.4l-.9-1.2-9.2-15.6h-12V53c0 .4-.1.7-.4 1-.2.1-.5.3-1 .3h-1c-.4 0-.7-.1-1-.4Zm14.2-20.4c3.4 0 5.9-.7 7.5-2 1.7-1.4 2.5-3.5 2.5-6.2 0-2.8-.8-4.8-2.5-6.2-1.6-1.4-4.1-2-7.5-2h-10.9v16.4h10.9ZM203 54c-.3-.3-.4-.6-.4-1V15c0-.4.1-.7.3-1 .3-.2.6-.3 1-.3h1c.5 0 .8 0 1 .3.2.3.3.6.3 1v38c0 .4 0 .7-.3 1-.2.1-.5.3-1 .3h-1c-.4 0-.7-.1-1-.4ZM219.9 54c-.3-.3-.4-.6-.4-1V15c0-.4.1-.7.4-1 .2-.2.5-.3.9-.3h22.7c.4 0 .7 0 1 .3.2.3.3.6.3 1v.9c0 .4-.1.7-.4 1-.2.1-.5.3-1 .3h-20.2v14.7h19c.4 0 .8.2 1 .4.2.2.3.6.3 1v.8c0 .4 0 .7-.3 1-.3.2-.6.3-1 .3h-19v15.4h20.7c.5 0 .8.1 1 .3.3.3.4.6.4 1v.9c0 .4-.1.7-.4 1-.3.2-.6.3-1 .3h-23.1c-.4 0-.7-.1-1-.4ZM22.3 71v4.7h-2.9V61h5.9a8.4 8.4 0 0 1 3 .6c3.7 1.8 3.5 7.4-.3 9h-.2c-1 .4-2 .5-3 .5h-2.5Zm3.7-7.4h-3.7v4.7h3c.4 0 .9 0 1.3-.2 2-1 1.7-4.5-.6-4.5ZM42.2 75.7h-2.9v-1c-2 2.1-7 1.5-7.4-1.8-.6-4.3 4.3-5 7.4-4-.3-3-3.8-2-5.7-1.3l-.8-2.5c2.8-1.1 7.6-1.8 9 1.6v.2c.3.7.4 1.5.4 2.2v6.6Zm-2.9-4.6c-.3-.5-4.9-1-4.5 1.3.3 1.9 4.2 1.5 4.5-.4v-1ZM67.2 65.5l-1 2.2c-1-.6-3-1.4-4.1-1-.8.2-.6 1.2 0 1.5 1.6 1 4.4 1.1 5.2 3 1 2.5-1 4.5-3.5 4.8-2.4.3-5.5-1.8-5.5-1.8l1.1-2c1.3.8 3.4 2 4.9 1.1 2-1.4-2.3-2.3-3.2-2.8-4.2-2-2.2-6.9 2.5-6.3 1.6.2 3.6 1.3 3.6 1.3ZM56.4 64.4h-2.9v11.3h2.9V64.4ZM56.4 60.4h-3v2.8h3v-2.8ZM49.1 64.7a3.5 3.5 0 0 0-.8.6c-.5.6-.6 1.3-.6 1.3v-2.2h-2.9v11.3h3v-4.4a5.4 5.4 0 0 1 .4-2.3c.6-1.3 1.9-1.8 3.3-1.7v-3a4 4 0 0 0-2.4.4ZM216.4 76h-1.3c-7.2-1-6.6-11.8 1.1-11.5 7.1.4 7.3 10.6.2 11.4Zm-1-9c-3.6.5-3.3 6.3.4 6.4 4.2.1 4-7-.4-6.3Z"></path><path fill="#00436A" d="M203.2 76h-.6c-7.6-.4-7.1-11.8.7-11.5 7.3.4 7.1 11.1-.1 11.4Zm-.8-9c-3.5.5-3.2 6.3.4 6.4 4.3.1 4-7-.4-6.3ZM180 76h-1.4c-8.1-1.7-5.2-13.6 2.8-11.2.5.1 2.5 1.2 2.4 1.8 0 .2-1.4 1.7-1.7 1.7-.2 0-1.3-1.2-2.4-1.3-4.4-.4-4 7.8 1 6.2.5-.2 1.3-1.1 1.7-1l1.5 1.5c.1.5-2 1.8-2.5 1.9l-1.4.3Z"></path><path fill="#00436A" d="M188.3 60.7v5.1c1.8-2 5.6-1.7 6.7.8l.4 1.4v7.6h-2.8v-6.5a4 4 0 0 0-.6-1.4c-.6-.7-1.9-.7-2.6-.3-.4.2-1 1-1 1.4v6.8h-2.9V60.7h2.8ZM226.4 60.7h-2.8v15h2.8v-15ZM166.6 75.8c-1 0-2.2-.2-3.2-.5s-1.9-.7-2.5-1.2l1-2.4c.7.4 1.4.8 2.2 1a8 8 0 0 0 2.5.5 5 5 0 0 0 1.6-.2l.9-.6c.2-.2.3-.5.3-.8a1 1 0 0 0-.5-.8c-.3-.3-.7-.4-1.2-.6l-1.6-.4-1.7-.5a7 7 0 0 1-1.6-.7c-.5-.3-.9-.7-1.2-1.2-.3-.5-.4-1-.4-1.8s.2-1.5.6-2.2c.5-.7 1.1-1.2 2-1.6.9-.4 2-.6 3.3-.6.9 0 1.8.1 2.6.3.9.3 1.7.6 2.3 1l-1 2.4a8.3 8.3 0 0 0-4-1l-1.5.1-.8.6c-.2.3-.3.5-.3.8 0 .4.1.7.4 1l1.2.5a35 35 0 0 0 3.4.8l1.6.7c.5.3.8.7 1.2 1.2.3.5.4 1 .4 1.8s-.2 1.5-.6 2.2c-.5.6-1.1 1.2-2 1.6a8 8 0 0 1-3.4.6Z"></path></svg> 