<?xml version="1.0" encoding="UTF-8" standalone="no"?>
<!DOCTYPE svg PUBLIC "-//W3C//DTD SVG 1.1//EN"
 "http://www.w3.org/Graphics/SVG/1.1/DTD/svg11.dtd">
<!-- Generated by graphviz version 2.43.0 (0)
 -->
<!-- Title: dataflow Pages: 1 -->
<svg width="1312pt" height="79pt"
 viewBox="0.00 0.00 1311.93 78.63" xmlns="http://www.w3.org/2000/svg" xmlns:xlink="http://www.w3.org/1999/xlink">
<g id="graph0" class="graph" transform="scale(1 1) rotate(0) translate(4 74.63)">
<title>dataflow</title>
<polygon fill="white" stroke="transparent" points="-4,4 -4,-74.63 1307.93,-74.63 1307.93,4 -4,4"/>
<!-- sql -->
<g id="node1" class="node">
<title>sql</title>
<ellipse fill="none" stroke="black" cx="44.5" cy="-22.63" rx="44.5" ry="18"/>
<text text-anchor="middle" x="44.5" y="-19.83" font-family="sans-serif" font-size="11.00">SQL query</text>
</g>
<!-- planner -->
<g id="node2" class="node">
<title>planner</title>
<polygon fill="none" stroke="black" points="278,-40.63 174,-40.63 174,-4.63 278,-4.63 278,-40.63"/>
<text text-anchor="middle" x="226" y="-19.83" font-family="sans-serif" font-size="11.00">provsql_planner</text>
</g>
<!-- sql&#45;&gt;planner -->
<g id="edge1" class="edge">
<title>sql&#45;&gt;planner</title>
<path fill="none" stroke="black" d="M89.41,-22.63C111.75,-22.63 139.27,-22.63 163.67,-22.63"/>
<polygon fill="black" stroke="black" points="163.91,-26.13 173.91,-22.63 163.91,-19.13 163.91,-26.13"/>
<text text-anchor="middle" x="131.5" y="-25.43" font-family="sans-serif" font-size="9.00">Query tree</text>
</g>
<!-- rewrite -->
<g id="node3" class="node">
<title>rewrite</title>
<polygon fill="none" stroke="black" points="487,-40.63 391,-40.63 391,-4.63 487,-4.63 487,-40.63"/>
<text text-anchor="middle" x="439" y="-25.83" font-family="sans-serif" font-size="11.00">process_query</text>
<text text-anchor="middle" x="439" y="-13.83" font-family="sans-serif" font-size="11.00">(rewriting)</text>
</g>
<!-- planner&#45;&gt;rewrite -->
<g id="edge2" class="edge">
<title>planner&#45;&gt;rewrite</title>
<path fill="none" stroke="black" d="M278.08,-22.63C309,-22.63 348.52,-22.63 380.53,-22.63"/>
<polygon fill="black" stroke="black" points="380.64,-26.13 390.64,-22.63 380.64,-19.13 380.64,-26.13"/>
<text text-anchor="middle" x="334.5" y="-25.43" font-family="sans-serif" font-size="9.00">has provenance?</text>
</g>
<!-- exec -->
<g id="node4" class="node">
<title>exec</title>
<polygon fill="none" stroke="black" points="674,-40.63 594,-40.63 594,-4.63 674,-4.63 674,-40.63"/>
<text text-anchor="middle" x="634" y="-25.83" font-family="sans-serif" font-size="11.00">PostgreSQL</text>
<text text-anchor="middle" x="634" y="-13.83" font-family="sans-serif" font-size="11.00">executor</text>
</g>
<!-- rewrite&#45;&gt;exec -->
<g id="edge3" class="edge">
<title>rewrite&#45;&gt;exec</title>
<path fill="none" stroke="black" d="M487.21,-22.63C516.46,-22.63 553.97,-22.63 583.61,-22.63"/>
<polygon fill="black" stroke="black" points="583.74,-26.13 593.74,-22.63 583.74,-19.13 583.74,-26.13"/>
<text text-anchor="middle" x="540.5" y="-25.43" font-family="sans-serif" font-size="9.00">rewritten query</text>
</g>
<!-- circuit -->
<g id="node5" class="node">
<title>circuit</title>
<polygon fill="none" stroke="black" points="884,-70.63 778,-70.63 778,-34.63 884,-34.63 884,-70.63"/>
<text text-anchor="middle" x="831" y="-55.83" font-family="sans-serif" font-size="11.00">Circuit</text>
<text text-anchor="middle" x="831" y="-43.83" font-family="sans-serif" font-size="11.00">(mmap storage)</text>
</g>
<!-- exec&#45;&gt;circuit -->
<g id="edge4" class="edge">
<title>exec&#45;&gt;circuit</title>
<path fill="none" stroke="black" d="M674.46,-28.7C701.16,-32.81 736.98,-38.32 767.52,-43.01"/>
<polygon fill="black" stroke="black" points="767.23,-46.51 777.65,-44.57 768.3,-39.59 767.23,-46.51"/>
<text text-anchor="middle" x="726" y="-53.43" font-family="sans-serif" font-size="9.00">UUID tokens</text>
<text text-anchor="middle" x="726" y="-43.43" font-family="sans-serif" font-size="9.00">(gate creation)</text>
</g>
<!-- result -->
<g id="node7" class="node">
<title>result</title>
<ellipse fill="none" stroke="black" cx="1237.47" cy="-22.63" rx="66.44" ry="22.76"/>
<text text-anchor="middle" x="1237.47" y="-25.83" font-family="sans-serif" font-size="11.00">Query result</text>
<text text-anchor="middle" x="1237.47" y="-13.83" font-family="sans-serif" font-size="11.00">+ provenance</text>
</g>
<!-- exec&#45;&gt;result -->
<g id="edge5" class="edge">
<title>exec&#45;&gt;result</title>
<path fill="none" stroke="black" d="M674,-22.63C772.21,-22.63 1031.1,-22.63 1160.53,-22.63"/>
<polygon fill="black" stroke="black" points="1160.76,-26.13 1170.76,-22.63 1160.76,-19.13 1160.76,-26.13"/>
<text text-anchor="middle" x="937" y="-25.43" font-family="sans-serif" font-size="9.00">tuples + UUIDs</text>
</g>
<!-- eval -->
<g id="node6" class="node">
<title>eval</title>
<polygon fill="none" stroke="black" points="1064,-70.63 990,-70.63 990,-34.63 1064,-34.63 1064,-70.63"/>
<text text-anchor="middle" x="1027" y="-55.83" font-family="sans-serif" font-size="11.00">Semiring</text>
<text text-anchor="middle" x="1027" y="-43.83" font-family="sans-serif" font-size="11.00">evaluation</text>
</g>
<!-- circuit&#45;&gt;eval -->
<g id="edge6" class="edge">
<title>circuit&#45;&gt;eval</title>
<path fill="none" stroke="black" d="M884.24,-52.63C914.03,-52.63 951.02,-52.63 979.75,-52.63"/>
<polygon fill="black" stroke="black" points="979.93,-56.13 989.93,-52.63 979.93,-49.13 979.93,-56.13"/>
<text text-anchor="middle" x="937" y="-55.43" font-family="sans-serif" font-size="9.00">circuit DAG</text>
</g>
<!-- eval&#45;&gt;result -->
<g id="edge7" class="edge">
<title>eval&#45;&gt;result</title>
<path fill="none" stroke="black" d="M1064.31,-47.4C1092.23,-43.38 1131.68,-37.71 1165.77,-32.8"/>
<polygon fill="black" stroke="black" points="1166.29,-36.26 1175.69,-31.37 1165.29,-29.33 1166.29,-36.26"/>
<text text-anchor="middle" x="1117.5" y="-56.43" font-family="sans-serif" font-size="9.00">semiring values</text>
<text text-anchor="middle" x="1117.5" y="-46.43" font-family="sans-serif" font-size="9.00">or probabilities</text>
</g>
</g>
</svg>
